<?xml version="1.0" encoding="UTF-8" standalone="no"?>
<svg
   xmlns:dc="http://purl.org/dc/elements/1.1/"
   xmlns:cc="http://creativecommons.org/ns#"
   xmlns:rdf="http://www.w3.org/1999/02/22-rdf-syntax-ns#"
   xmlns:svg="http://www.w3.org/2000/svg"
   xmlns="http://www.w3.org/2000/svg"
   xmlns:sodipodi="http://sodipodi.sourceforge.net/DTD/sodipodi-0.dtd"
   xmlns:inkscape="http://www.inkscape.org/namespaces/inkscape"
   class="icon"
   style="width: 1em; height: 1em;vertical-align: middle;fill: currentColor;overflow: hidden;"
   viewBox="0 0 1024 1024"
   version="1.1"
   id="svg4"
   sodipodi:docname="map_marker_radius.svg"
   inkscape:version="0.92.5 (2060ec1f9f, 2020-04-08)">
  <metadata
     id="metadata10">
    <rdf:RDF>
      <cc:Work
         rdf:about="">
        <dc:format>image/svg+xml</dc:format>
        <dc:type
           rdf:resource="http://purl.org/dc/dcmitype/StillImage" />
      </cc:Work>
    </rdf:RDF>
  </metadata>
  <defs
     id="defs8" />
  <sodipodi:namedview
     pagecolor="#ffffff"
     bordercolor="#666666"
     borderopacity="1"
     objecttolerance="10"
     gridtolerance="10"
     guidetolerance="10"
     inkscape:pageopacity="0"
     inkscape:pageshadow="2"
     inkscape:window-width="1920"
     inkscape:window-height="1017"
     id="namedview6"
     showgrid="false"
     inkscape:zoom="0.23046875"
     inkscape:cx="512"
     inkscape:cy="512"
     inkscape:window-x="-8"
     inkscape:window-y="-8"
     inkscape:window-maximized="1"
     inkscape:current-layer="svg4" />
  <path
     d="M512 85.333333c141.226667 0 256 113.493333 256 253.866667C768 529.493333 512 810.666667 512 810.666667S256 529.493333 256 339.2C256 198.826667 370.773333 85.333333 512 85.333333m0 170.666667a85.333333 85.333333 0 0 0-85.333333 85.333333 85.333333 85.333333 0 0 0 85.333333 85.333334 85.333333 85.333333 0 0 0 85.333333-85.333334 85.333333 85.333333 0 0 0-85.333333-85.333333m341.333333 554.666667c0 94.293333-152.746667 170.666667-341.333333 170.666666s-341.333333-76.373333-341.333333-170.666666c0-55.04 52.053333-104.106667 132.693333-135.253334l27.306667 38.826667C284.586667 733.44 256 759.893333 256 789.333333c0 58.88 114.773333 106.666667 256 106.666667s256-47.786667 256-106.666667c0-29.44-28.586667-55.893333-74.666667-75.093333l27.306667-38.826667C801.28 706.56 853.333333 755.626667 853.333333 810.666667z"
     fill=""
     id="path2"
     style="fill:#ffffff;fill-opacity:1" />
</svg>
